# AST/ASF file generated using VICON BodyLanguage
# -----------------------------------------------
:version 1.10
:name VICON
:units
  mass 1.0
  length 0.45
  angle deg
:documentation
   .ast/.asf automatically generated from VICON data using
   VICON BodyBuilder and BodyLanguage model FoxedUp or BRILLIANT.MOD
:root
   order TX TY TZ RX RY RZ
   axis XYZ
   position 0 0 0  
   orientation 0 0 0 
:bonedata
  begin
     id 1 
     name lhipjoint
     direction 0.621036 -0.695554 0.361275 
     length 2.46325 
     axis 0 0 0  XYZ
  end
  begin
     id 2 
     name lfemur
     direction 0.34202 -0.939693 0  
     length 6.54784  
     axis 0 0 20  XYZ
    dof rx ry rz
    limits (-160.0 20.0)
           (-70.0 70.0)
           (-60.0 70.0)
  end
  begin
     id 3 
     name ltibia
     direction 0.34202 -0.939693 0   
     length 7.84737   
     axis 0 0 20   XYZ
    dof rx
    limits (-10.0 170.0)
  end
  begin
     id 4 
     name lfoot
     direction 0.0790693 -0.217241 0.97291   
     length 2.59747   
     axis -90 7.62852e-016 20   XYZ
    dof rx rz
    limits (-45.0 90.0)
           (-70.0 20.0)
  end
  begin
     id 5 
     name ltoes
     direction 1.53572e-011 -4.21898e-011 1   
     length 1.29919   
     axis -90 7.62852e-016 20   XYZ
    dof rx
    limits (-90.0 20.0)
  end
  begin
     id 6 
     name rhipjoint
     direction -0.602353 -0.708375 0.367935   
     length 2.41867  
     axis 0 0 0  XYZ 
  end
  begin
     id 7 
     name rfemur
     direction -0.34202 -0.939693 0   
     length 6.92065   
     axis 0 0 -20   XYZ
    dof rx ry rz
    limits (-160.0 20.0)
           (-70.0 70.0)
           (-70.0 60.0)
  end
  begin
     id 8 
     name rtibia
     direction -0.34202 -0.939693 0   
     length 7.88883   
     axis 0 0 -20   XYZ
    dof rx
    limits (-10.0 170.0)
 end
 begin
     id 9 
     name rfoot
     direction -0.0768692 -0.211196 0.974416   
     length 2.43714  
     axis -90 -7.62852e-016 -20   XYZ
    dof rx rz
    limits (-45.0 90.0)
           (-20.0 70.0)
  end
  begin
     id 10 
     name rtoes
     direction -1.53575e-011 -4.21933e-011 1   
     length 1.22113   
     axis -90 -7.62852e-016 -20   XYZ
    dof rx
    limits (-90.0 20.0)
  end
  begin
     id 11 
     name lowerback
     direction 0.0197937 0.98943 -0.143655   
     length 2.16931   
     axis 0 0 0   XYZ
    dof rx ry rz
    limits (-20.0 45.0)
           (-30.0 30.0)
           (-30.0 30.0)
  end
  begin
     id 12 
     name upperback
     direction -0.00183968 0.999975 0.00684288   
     length 2.17221   
     axis 0 0 0   XYZ
    dof rx ry rz
    limits (-20.0 45.0)
           (-30.0 30.0)
           (-30.0 30.0)
  end
  begin
     id 13 
     name thorax
     direction -0.00950244 0.997208 0.0740685   
     length 2.22549   
     axis 0 0 0   XYZ
    dof rx ry rz
    limits (-20.0 45.0)
           (-30.0 30.0)
           (-30.0 30.0)
  end
  begin
     id 14 
     name lowerneck
     direction 0.0218238 0.996215 0.0841425   
     length 1.77269   
     axis 0 0 0   XYZ
    dof rx ry rz
    limits (-20.0 45.0)
           (-30.0 30.0)
           (-30.0 30.0)
  end
  begin
     id 15 
     name upperneck
     direction -0.00430652 0.994214 -0.107332   
     length 1.76534   
     axis 0 0 0   XYZ
    dof rx ry rz
    limits (-20.0 45.0)
           (-30.0 30.0)
           (-30.0 30.0)
  end
  begin
     id 16
     name head
     direction -0.00328946 0.998959 -0.0454998  
     length 1.82634  
     axis 0 0 0   XYZ
    dof rx ry rz
    limits (-20.0 45.0)
           (-30.0 30.0)
           (-30.0 30.0)
  end
  begin
     id 17 
     name lclavicle
     direction 0.970962 0.239191 0.00450212  
     length 3.84872  
     axis 0 0 0   XYZ
    dof ry rz
    limits (-20.0 10.0)
           (0.0 20.0)
  end
  begin
     id 18 
     name lhumerus
     direction 1 -4.48966e-011 5.74696e-028   
     length 5.22771   
     axis 180 -30 -90   XYZ
    dof rx ry rz
    limits (-60.0 90.0)
           (-90.0 90.0)
           (-90.0 90.0)
  end
  begin
     id 19
     name lradius
     direction 1 -4.4896e-011 4.25109e-027   
     length 3.45251   
     axis 180 -30 -90   XYZ
    dof rx
    limits (-10.0 170.0)
  end
  begin
     id 20
     name lwrist
     direction 1 -4.48971e-011 1.15382e-027   
     length 1.72626   
     axis -5.52449e-016 90 90   XYZ
    dof ry
    limits (-180.0 0.0)
 end
  begin
     id 21 
     name lhand
     direction 1 -4.49034e-011 2.30765e-027   
     length 0.552119   
     axis -1.47248e-015 90 90   XYZ
    dof rx rz
    limits (-90.0 90.0)
           (-45.0 45.0)
  end
  begin
     id 22 
     name lfingers
     direction 1 -4.48951e-011 4.61529e-027   
     length 0.445133   
     axis -2.94495e-015 90 90   XYZ
    dof rx
    limits (0.0 90.0)
  end
  begin
     id 23
     name lthumb
     direction 0.707107 -6.34991e-011 0.707107   
     length 0.639124   
     axis -90 45 2.85299e-015   XYZ
    dof rx rz
    limits (-45.0 45.0)
           (-45.0 45.0)
  end
  begin
     id 24 
     name rclavicle
     direction -0.97424 0.222511 -0.0366699   
     length 3.73439  
     axis 0 0 0   XYZ 
    dof ry rz
    limits (-10.0 20.0)
           (-20.0 0.0)
  end
  begin
     id 25 
     name rhumerus
     direction -1 -4.48956e-011 -4.97258e-028  
     length 5.2398   
     axis 180 30 90   XYZ
    dof rx ry rz
    limits (-90.0 60.0)
           (-90.0 90.0)
           (-90.0 90.0)
  end
  begin
     id 26 
     name rradius
     direction -1 -4.4897e-011 -1.72611e-027   
     length 3.48042   
     axis 180 30 90   XYZ
    dof rx
    limits (-10.0 170.0)
  end
  begin
     id 27 
     name rwrist
     direction -1 -4.48976e-011 1.15382e-027   
     length 1.74021   
     axis -5.52449e-016 -90 -90   XYZ
    dof ry
    limits (-180.0 0.0)
  end
  begin
     id 28
     name rhand
     direction -1 -4.48963e-011 2.30765e-027   
     length 0.618713   
     axis -1.47248e-015 -90 -90   XYZ
    dof rx rz
    limits (-90.0 90.0)
           (-45.0 45.0)
  end
  begin
     id 29
     name rfingers
     direction -1 -4.4888e-011 4.61529e-027   
     length 0.498823   
     axis -2.94495e-015 -90 -90   XYZ
    dof rx
    limits (0.0 90.0)
  end
  begin
     id 30
     name rthumb
     direction -0.707107 -6.34968e-011 0.707107   
     length 0.716213   
     axis -90 -45 -2.85299e-015   XYZ
    dof rx rz
    limits (-45.0 45.0)
           (-45.0 45.0)
  end
:hierarchy
  begin
    root lhipjoint rhipjoint lowerback
    lhipjoint lfemur
    lfemur ltibia
    ltibia lfoot
    lfoot ltoes
    rhipjoint rfemur
    rfemur rtibia
    rtibia rfoot
    rfoot rtoes
    lowerback upperback
    upperback thorax
    thorax lowerneck lclavicle rclavicle
    lowerneck upperneck
    upperneck head
    lclavicle lhumerus
    lhumerus lradius
    lradius lwrist
    lwrist lhand lthumb
    lhand lfingers
    rclavicle rhumerus
    rhumerus rradius
    rradius rwrist
    rwrist rhand rthumb
    rhand rfingers
  end

#!OML:ASF G:\JayActor3\Patient Classification 1\Patient 1\Session 5\male.ASF
:FULLY-SPECIFIED
:DEGREES
318
root -18.2656 16.209 -6.35319 214.447 -83.6719 -192.765
lowerback 29.5219 0.0478055 1.03291
upperback 5.8397 -0.346768 -1.36955
thorax -9.70869 -0.4335 -1.98004
lowerneck 3.1053 1.16767 2.69592
upperneck -16.8099 1.24962 -1.88287
head -5.54012 0.432109 -1.09506
rclavicle 1.95554e-014 2.52457e-014
rhumerus -29.7298 5.23725 -89.7098
rradius 38.2474
rwrist -5.73883
rhand -21.0006 -6.94859
rfingers 7.12502
rthumb 5.37373 -36.8605
lclavicle 1.95554e-014 2.52457e-014
lhumerus -29.7379 -5.98478 85.5958
lradius 34.9265
lwrist 24.7881
lhand -20.0353 10.4718
lfingers 7.12502
lthumb 6.3057 40.3579
rfemur -59.4569 0.971857 16.7548
rtibia 89.2766
rfoot -13.7777 -9.77062
rtoes -21.702
lfemur -52.2999 1.70025 -28.4277
ltibia 44.8787
lfoot -13.1465 10.7402
ltoes -1.07134
319
root -18.1751 16.2247 -6.3585 214.018 -83.5941 -192.268
lowerback 29.5445 0.0560381 1.05424
upperback 5.82324 -0.329912 -1.37355
thorax -9.73795 -0.426526 -2.00335
lowerneck 3.08007 1.18264 2.69522
upperneck -16.7661 1.26731 -1.90544
head -5.5215 0.443087 -1.10256
rclavicle 1.43373e-014 -1.41634e-015
rhumerus -29.7273 5.22581 -89.6761
rradius 38.2687
rwrist -5.71709
rhand -21.0384 -6.94495
rfingers 7.12502
rthumb 5.33726 -36.8577
lclavicle 1.43373e-014 -1.41634e-015
lhumerus -29.7281 -6.02599 85.6373
lradius 34.9588
lwrist 24.8069
lhand -20.0105 10.4142
lfingers 7.12502
lthumb 6.32965 40.2996
rfemur -58.7893 0.926936 16.8485
rtibia 89.2935
rfoot -13.6165 -9.85045
rtoes -21.7066
lfemur -52.46 1.63686 -28.2921
ltibia 44.3792
lfoot -12.569 10.7814
ltoes -0.926277
320
root -18.0846 16.2392 -6.36471 213.674 -83.5124 -191.858
lowerback 29.5677 0.0653971 1.05974
upperback 5.80749 -0.316581 -1.37855
thorax -9.76687 -0.420805 -2.01732
lowerneck 3.06043 1.1963 2.69403
upperneck -16.7282 1.28411 -1.92196
head -5.50575 0.453157 -1.10808
rclavicle -5.91384e-015 -1.44119e-015
rhumerus -29.7218 5.21831 -89.6461
rradius 38.2909
rwrist -5.68974
rhand -21.08 -6.94348
rfingers 7.12502
rthumb 5.2971 -36.8573
lclavicle -5.91384e-015 -1.44119e-015
lhumerus -29.7152 -6.04782 85.6717
lradius 34.9803
lwrist 24.8167
lhand -19.9877 10.3791
lfingers 7.12502
lthumb 6.35169 40.2638
rfemur -58.1372 0.902865 16.9336
rtibia 89.215
rfoot -13.4323 -9.88869
rtoes -21.6892
lfemur -52.6209 1.58956 -28.1684
ltibia 43.8853
lfoot -11.9963 10.802
ltoes -0.793573
321
root -17.9937 16.2523 -6.37173 213.423 -83.4226 -191.542
lowerback 29.5878 0.0776016 1.04894
upperback 5.7915 -0.304855 -1.3864
thorax -9.79463 -0.415395 -2.02446
lowerneck 3.04876 1.20926 2.69095
upperneck -16.7019 1.30048 -1.9333
head -5.49505 0.462601 -1.11178
rclavicle 3.13086e-015 1.41634e-014
rhumerus -29.7139 5.21387 -89.6202
rradius 38.3137
rwrist -5.66128
rhand -21.1196 -6.93587
rfingers 7.12502
rthumb 5.2589 -36.8506
lclavicle 3.13086e-015 1.41634e-014
lhumerus -29.7031 -6.06554 85.7045
lradius 34.9974
lwrist 24.8229
lhand -19.9871 10.3635
lfingers 7.12502
lthumb 6.35225 40.2482
rfemur -57.5157 0.900622 17.0071
rtibia 89.0476
rfoot -13.1967 -9.91015
rtoes -21.5806
lfemur -52.786 1.55788 -28.0588
ltibia 43.3964
lfoot -11.4346 10.803
ltoes -0.651339
322
root -17.9025 16.2642 -6.37967 213.279 -83.3309 -191.334
lowerback 29.604 0.0902473 1.02649
upperback 5.77638 -0.296451 -1.3972
thorax -9.81965 -0.411206 -2.02696
lowerneck 3.0509 1.22024 2.69079
upperneck -16.6905 1.31431 -1.94543
head -5.49143 0.470509 -1.11626
rclavicle -3.62782e-014 -5.37961e-014
rhumerus -29.7064 5.21294 -89.5997
rradius 38.3408
rwrist -5.6363
rhand -21.155 -6.92894
rfingers 7.12502
rthumb 5.22469 -36.8445
lclavicle -3.62782e-014 -5.37961e-014
lhumerus -29.6931 -6.08384 85.7361
lradius 35.0147
lwrist 24.8274
lhand -20.004 10.3701
lfingers 7.12502
lthumb 6.33591 40.2554
rfemur -56.9189 0.91647 17.0727
rtibia 88.7944
rfoot -12.911 -9.93334
rtoes -21.3123
lfemur -52.9534 1.5396 -27.9647
ltibia 42.9126
lfoot -10.8717 10.7919
ltoes -0.549357
323
root -17.8109 16.2746 -6.38822 213.216 -83.2382 -191.207
lowerback 29.6141 0.101691 1.00098
upperback 5.76531 -0.291256 -1.41217
thorax -9.83721 -0.408467 -2.03116
lowerneck 3.05778 1.22885 2.69141
upperneck -16.6914 1.32498 -1.95533
head -5.4925 0.476429 -1.1201
rclavicle 3.95085e-014 2.08724e-014
rhumerus -29.6938 5.21344 -89.5845
rradius 38.3722
rwrist -5.6158
rhand -21.1786 -6.92092
rfingers 7.12502
rthumb 5.20186 -36.8371
lclavicle 3.95085e-014 2.08724e-014
lhumerus -29.6783 -6.10403 85.7647
lradius 35.0323
lwrist 24.8228
lhand -20.0268 10.3903
lfingers 7.12502
lthumb 6.31397 40.2762
rfemur -56.35 0.946257 17.1329
rtibia 88.4607
rfoot -12.5747 -9.97188
rtoes -20.8059
lfemur -53.1252 1.53388 -27.8858
ltibia 42.4346
lfoot -10.3023 10.7725
ltoes -0.506631
324
root -17.7188 16.283 -6.39745 213.244 -83.1467 -191.17
lowerback 29.6152 0.111897 0.969631
upperback 5.75463 -0.289488 -1.42907
thorax -9.85001 -0.407055 -2.03285
lowerneck 3.06554 1.2361 2.69518
upperneck -16.694 1.33329 -1.96993
head -5.49428 0.481281 -1.12584
rclavicle 6.48535e-015 2.78795e-014
rhumerus -29.6828 5.2203 -89.5742
rradius 38.4105
rwrist -5.61098
rhand -21.1873 -6.91959
rfingers 7.12502
rthumb 5.19351 -36.8359
lclavicle 6.48535e-015 2.78795e-014
lhumerus -29.6647 -6.12666 85.7947
lradius 35.0517
lwrist 24.8119
lhand -20.061 10.4162
lfingers 7.12502
lthumb 6.28094 40.3031
rfemur -55.812 0.987927 17.1898
rtibia 88.0504
rfoot -12.1667 -10.0477
rtoes -19.9512
lfemur -53.3071 1.54022 -27.8234
ltibia 41.9625
lfoot -9.72401 10.7402
ltoes -0.515174
325
root -17.6262 16.2899 -6.40715 213.356 -83.0641 -191.219
lowerback 29.6123 0.115961 0.945483
upperback 5.74709 -0.293927 -1.44977
thorax -9.85756 -0.408741 -2.0407
lowerneck 3.06854 1.24297 2.69932
upperneck -16.6921 1.34111 -1.98428
head -5.49383 0.485895 -1.13145
rclavicle -1.51573e-014 -1.79403e-014
rhumerus -29.669 5.22298 -89.5701
rradius 38.4549
rwrist -5.61731
rhand -21.1848 -6.92145
rfingers 7.12502
rthumb 5.19591 -36.8377
lclavicle -1.51573e-014 -1.79403e-014
lhumerus -29.6472 -6.1516 85.8215
lradius 35.069
lwrist 24.7889
lhand -20.0971 10.4291
lfingers 7.12502
lthumb 6.2461 40.317
rfemur -55.291 1.02915 17.2484
rtibia 87.5614
rfoot -11.6998 -10.1682
rtoes -18.8444
lfemur -53.4927 1.55498 -27.7762
ltibia 41.4958
lfoot -9.13447 10.6938
ltoes -0.599141
326
root -17.5332 16.2955 -6.41751 213.494 -82.9897 -191.296
lowerback 29.5992 0.116525 0.923801
upperback 5.74553 -0.302123 -1.46879
thorax -9.85333 -0.412167 -2.04658
lowerneck 3.06092 1.25229 2.70416
upperneck -16.6835 1.35146 -2.00282
head -5.48936 0.492003 -1.13852
rclavicle -2.27111e-014 -2.01518e-014
rhumerus -29.6484 5.22918 -89.569
rradius 38.5061
rwrist -5.6348
rhand -21.1777 -6.91299
rfingers 7.12502
rthumb 5.20282 -36.8291
lclavicle -2.27111e-014 -2.01518e-014
lhumerus -29.6219 -6.17024 85.8466
lradius 35.0855
lwrist 24.7595
lhand -20.1248 10.4349
lfingers 7.12502
lthumb 6.21929 40.3236
rfemur -54.7826 1.07955 17.3126
rtibia 86.9876
rfoot -11.2159 -10.3244
rtoes -17.4483
lfemur -53.6839 1.58557 -27.7401
ltibia 41.0349
lfoot -8.54031 10.6287
ltoes -0.73208
327
root -17.4398 16.3 -6.42855 213.678 -82.9273 -191.421
lowerback 29.5856 0.113014 0.907031
upperback 5.74435 -0.313674 -1.48577
thorax -9.84859 -0.417211 -2.05176
lowerneck 3.04625 1.26027 2.70831
upperneck -16.6652 1.35975 -2.02276
head -5.48071 0.497362 -1.14566
rclavicle -1.73937e-015 -2.9122e-014
rhumerus -29.6298 5.23546 -89.5697
rradius 38.5586
rwrist -5.66404
rhand -21.1705 -6.90585
rfingers 7.12502
rthumb 5.20975 -36.8218
lclavicle -1.73937e-015 -2.9122e-014
lhumerus -29.595 -6.18843 85.8718
lradius 35.0985
lwrist 24.7323
lhand -20.1377 10.4213
lfingers 7.12502
lthumb 6.20683 40.3103
rfemur -54.279 1.13336 17.3811
rtibia 86.3235
rfoot -10.7277 -10.4968
rtoes -15.8092
lfemur -53.8767 1.62223 -27.7099
ltibia 40.581
lfoot -7.95482 10.5421
ltoes -0.850684
